<svg version="1.1" id="Layer_1" xmlns="http://www.w3.org/2000/svg" xmlns:xlink="http://www.w3.org/1999/xlink"
     width="100px" height="100px" viewBox="0 0 480 480" enable-background="new 0 0 480 480" xml:space="preserve">
  <path fill="#000000" opacity="1.000000" stroke="none"      
	d="
M481.000000,382.555847 
	C476.883453,383.449280 472.874817,384.690430 468.639801,384.311554 
	C463.755249,383.874573 459.556702,381.873352 456.221527,378.517761 
	C442.192932,364.403442 425.259613,364.090271 407.460052,368.069122 
	C400.980072,369.517578 394.647003,371.612885 388.211426,373.275665 
	C385.977814,373.852783 383.644501,374.250244 381.343842,374.322998 
	C374.261536,374.546844 369.677765,370.492798 369.721130,364.274475 
	C369.761963,358.420135 374.632263,353.490967 380.507904,353.357330 
	C387.310699,353.202606 390.932220,356.987183 391.018829,364.327972 
	C391.024384,364.799896 391.112274,365.270844 391.233765,366.425293 
	C398.157806,364.359894 404.232056,361.023956 410.118713,357.467072 
	C423.038483,349.660553 436.077515,349.133606 449.499054,355.959930 
	C455.789856,359.159485 461.069092,363.760925 466.563843,368.065155 
	C470.663513,371.276611 474.963684,374.042938 480.619019,374.937958 
	C481.000000,377.370575 481.000000,379.741119 481.000000,382.555847 
M384.427338,360.990601 
	C382.127747,358.852325 379.667786,358.714264 377.412048,360.856354 
	C375.624084,362.554199 375.666107,364.726471 377.103607,366.671112 
	C378.412201,368.441345 380.204895,369.170441 382.267426,367.909973 
	C384.649017,366.454529 386.642365,364.745697 384.427338,360.990601 
z"/>
<path fill="#000000" opacity="1.000000" stroke="none" 
	d="
M328.987457,378.973877 
	C339.025482,374.326324 345.922302,366.200592 351.959412,357.406158 
	C356.249481,351.156708 359.654755,344.299835 363.551483,337.546783 
	C366.335541,342.978729 356.467346,369.444885 346.138611,382.298187 
	C321.283173,413.228882 289.545654,420.035400 251.494370,407.320343 
	C260.026611,411.879547 268.189514,413.347198 276.645020,415.027649 
	C275.222961,417.738434 273.232025,417.279999 271.625305,417.149353 
	C242.799850,414.805725 212.415405,394.711090 201.255524,362.743347 
	C201.107956,362.320618 201.237137,361.801270 201.237137,360.878723 
	C205.396240,362.115051 206.540482,366.137939 209.248306,368.707153 
	C209.524658,365.161621 203.785889,362.236755 208.802048,358.499420 
	C201.359283,349.715607 197.748581,338.289886 190.547943,329.068146 
	C184.203125,320.942444 178.102554,312.576263 168.289764,307.037598 
	C166.491043,305.873810 165.297821,304.971191 164.104614,304.068573 
	C160.540878,299.401001 154.211990,298.092377 150.917923,292.777802 
	C160.241455,293.836853 168.134186,298.775665 176.569443,302.200714 
	C167.089478,293.880554 154.349640,292.473083 142.888397,285.708221 
	C150.569763,302.308685 162.245117,315.184235 170.193420,330.552277 
	C164.681290,330.161438 158.756683,330.709656 155.111084,326.611725 
	C142.750732,312.717651 126.643166,306.096344 109.205650,302.107849 
	C103.939598,300.903351 102.107162,298.231964 101.615219,293.363892 
	C100.964622,286.925812 100.439034,286.392151 94.088455,287.884216 
	C85.134880,289.987823 76.092072,288.523071 67.111214,289.184998 
	C62.455090,289.528168 60.157810,287.702911 57.717716,283.501953 
	C60.858837,283.781128 63.215755,286.514008 67.039062,285.320374 
	C60.115990,281.582306 55.813545,276.539246 55.241219,268.836456 
	C55.030499,266.000427 52.316170,265.555054 50.023872,264.975311 
	C40.987125,262.689880 33.297943,258.353241 28.276247,250.208466 
	C26.134769,246.735153 24.103199,243.133713 25.031862,238.470978 
	C28.849985,246.235931 33.110180,253.515396 41.446785,257.103302 
	C38.323502,254.171127 34.880966,251.518265 32.996326,247.300293 
	C40.250980,250.874252 46.452980,256.650421 55.860905,256.069427 
	C53.950962,254.979614 52.546558,254.128387 51.096348,253.364075 
	C49.476189,252.510162 47.790245,251.780487 46.174797,250.918304 
	C36.309998,245.653366 29.151684,237.891937 26.333811,227.019745 
	C24.208677,218.820358 27.870022,210.936401 29.593407,203.043884 
	C30.733034,197.824707 33.346409,193.008789 36.697853,188.827469 
	C39.818348,184.934296 40.906616,180.589539 40.811672,175.829117 
	C40.698734,170.166855 42.078907,164.845932 44.861301,160.039413 
	C50.708878,149.937866 57.368710,140.367477 65.375549,131.835220 
	C69.364929,127.584061 74.240547,124.608528 80.012878,123.195465 
	C61.894073,140.455872 42.646217,156.943542 48.090061,185.971924 
	C50.361843,178.638138 53.921562,172.081223 59.389969,166.591599 
	C60.549313,165.427750 60.487995,163.968933 60.147762,162.385803 
	C59.482822,159.291763 59.106144,156.152832 59.564682,152.966507 
	C60.445553,146.845490 61.996471,141.297272 69.870491,140.795410 
	C70.238251,142.495605 68.811523,143.688965 68.077240,144.968582 
	C63.126575,153.595810 64.916092,161.734726 70.170212,169.283508 
	C74.937325,176.132614 81.699516,180.771088 89.321167,184.075348 
	C91.615013,185.069839 93.941742,185.837173 96.024246,183.186035 
	C97.039932,181.893005 99.019424,181.951752 100.675247,181.683258 
	C111.970963,179.851746 123.118370,176.899017 134.965652,177.917877 
	C132.679672,172.190277 128.288422,169.254898 123.119820,169.402374 
	C117.998383,169.548523 113.564651,172.532135 108.574738,173.514801 
	C108.138626,170.727921 110.562767,171.087418 111.520149,169.472885 
	C105.078613,169.550690 99.296387,172.950684 93.007622,171.910217 
	C93.095444,171.222214 93.058929,170.670227 93.186340,170.629349 
	C104.984985,166.845367 116.304253,161.046265 129.243713,162.001801 
	C130.207336,162.072952 131.930954,162.026306 132.065842,161.622147 
	C134.138840,155.410385 137.297745,160.055145 138.964798,161.371490 
	C142.232559,163.951813 145.116684,163.884872 148.649750,162.376083 
	C157.575516,158.564316 157.609344,158.643524 167.065002,159.009491 
	C165.750702,155.291428 162.586517,153.954163 159.715698,152.216629 
	C158.131104,151.257553 154.340866,151.754700 156.472275,147.781219 
	C156.975967,146.842239 155.370361,146.329605 154.558380,145.846024 
	C150.012970,143.138992 143.597794,144.481857 139.605881,148.857574 
	C138.646912,149.908737 138.419571,151.700760 136.618927,151.960999 
	C135.671387,147.643631 137.765839,144.785202 142.733917,142.400986 
	C146.582031,140.554276 151.339157,141.901703 155.098938,138.812027 
	C151.825745,135.308868 147.272125,137.053513 144.026459,135.645065 
	C143.543198,133.883972 145.189621,133.818314 145.402893,132.490845 
	C138.234116,130.693420 131.483444,132.588959 124.361450,135.258560 
	C124.889557,131.309387 128.026199,131.224686 131.142670,129.141510 
	C126.359192,129.923935 122.790291,130.507690 118.843422,131.153275 
	C119.230049,128.522064 121.219521,128.456131 122.529251,128.095963 
	C129.593872,126.153282 136.694504,124.269516 144.136093,124.664894 
	C148.374954,124.890121 152.415634,124.169724 156.298065,122.422249 
	C163.278915,119.280205 170.628708,118.202553 178.237411,118.636925 
	C180.983246,118.793686 183.632431,118.577858 185.319733,115.953819 
	C190.037949,108.616219 195.394272,101.896599 203.826233,97.592133 
	C195.072189,90.219254 185.068604,89.631332 173.896347,89.980072 
	C176.532852,86.404213 179.222717,87.159073 181.861130,86.605347 
	C177.107117,85.483925 172.877197,87.378441 167.632492,88.034500 
	C171.207458,82.695396 176.375122,84.104736 180.990906,81.962982 
	C171.701584,78.825455 163.219009,80.476921 154.856140,82.805397 
	C154.319733,80.478668 155.757935,80.241867 156.691391,79.822708 
	C168.588730,74.480370 180.572266,74.174530 192.457367,79.721924 
	C198.696808,82.634201 205.072327,84.793350 211.929520,85.689049 
	C223.236313,87.165962 232.234848,82.082291 241.068695,76.091728 
	C251.132233,69.267273 261.194672,62.444183 273.636597,60.396564 
	C280.044952,59.341911 286.395050,59.616314 292.434448,61.425785 
	C298.788910,63.329651 304.114960,62.213943 309.472473,58.788361 
	C313.405426,56.273659 317.684448,54.373077 322.290466,53.329746 
	C323.897980,52.965622 325.487823,52.287342 327.254852,53.433468 
	C326.511597,56.666782 322.408295,55.245026 320.848206,58.519157 
	C327.064270,58.608150 333.071869,61.378410 338.734741,57.937862 
	C346.037079,53.501232 354.384399,54.445324 361.624664,55.268501 
	C368.367401,56.035114 375.934784,59.283794 380.978851,65.225235 
	C383.399933,68.076981 385.346405,67.913177 388.026886,65.565826 
	C393.398010,60.862217 399.166656,56.601967 403.656525,50.957996 
	C404.504547,49.891968 405.504333,49.100555 408.306244,49.162247 
	C405.514130,58.392094 403.483063,67.341156 400.161774,76.101562 
	C406.975098,67.940849 415.925140,61.974129 421.378967,52.544785 
	C423.906158,54.782124 423.441589,56.665234 422.855743,58.325199 
	C420.474091,65.073570 418.344177,71.993477 413.195160,77.318039 
	C410.143982,80.473259 409.766479,82.874153 413.926270,85.666885 
	C420.921631,90.363289 424.816895,97.846779 429.975830,104.573112 
	C426.082733,103.630135 424.088013,106.672638 421.380432,107.862251 
	C418.765747,109.011070 419.944733,111.377182 420.799011,113.059547 
	C422.911530,117.219719 425.217163,121.353966 428.828430,124.414764 
	C432.220245,127.289558 433.974152,130.828568 434.504150,135.153549 
	C434.993256,139.144989 437.864990,143.149460 437.438324,146.616196 
	C436.336609,155.567612 443.466400,160.556046 445.895294,167.679184 
	C446.547028,169.590485 447.482025,171.687851 450.366028,171.685257 
	C451.974304,171.683807 452.635406,173.457169 453.429596,174.715683 
	C458.939972,183.447632 464.389069,192.224869 471.495026,199.805984 
	C474.382477,202.886475 475.642303,206.973373 474.091370,210.453217 
	C470.839691,217.748947 467.281586,224.979523 461.868652,231.113037 
	C456.707428,236.961349 449.589508,236.278381 443.035767,237.060028 
	C433.434814,238.205078 428.496094,232.388794 425.940948,224.000305 
	C425.301636,221.901413 423.855164,220.911270 422.365540,219.543716 
	C415.140991,212.911240 405.149658,210.180817 398.667755,202.541992 
	C397.949219,201.695236 396.811523,200.901199 395.750671,200.698837 
	C390.330475,199.664902 385.829803,197.273300 382.332458,192.891144 
	C381.614227,191.991196 380.011505,191.549271 378.749542,191.371613 
	C370.973602,190.276917 363.943207,187.439713 357.879944,182.455536 
	C354.416687,179.608658 352.320221,180.367584 350.912018,184.416901 
	C346.247986,197.828247 343.928925,211.779160 341.362915,225.674103 
	C341.302612,226.000565 341.365448,226.362610 341.253876,226.664902 
	C336.374390,239.887634 341.803284,250.561691 349.465088,260.820099 
	C354.246765,267.222321 358.887634,273.758209 362.583496,280.875702 
	C363.363403,282.377655 364.867523,283.804962 363.858887,286.773712 
	C356.933472,277.315796 351.450592,267.538605 343.427612,258.122894 
	C343.667023,262.337921 344.806519,265.022461 346.128754,267.598053 
	C350.616730,276.340088 354.824066,285.254425 359.812317,293.705231 
	C368.700500,308.763062 367.908997,323.696198 360.815765,339.048309 
	C353.543549,354.787689 343.280365,368.044098 328.869934,378.837036 
	C325.009979,379.994629 321.586456,384.703064 318.379089,379.503876 
	C315.606140,375.008820 311.024597,371.805939 309.518585,366.366425 
	C309.014313,364.544922 307.338318,362.712769 304.802673,363.121460 
	C303.771942,365.420197 305.340515,366.486389 306.367218,367.690887 
	C309.281799,371.110199 312.333679,374.414551 315.191284,377.879791 
	C318.686676,382.118439 318.060211,383.701782 313.035370,385.884979 
	C304.883667,389.426819 296.098602,389.276001 287.588074,390.191254 
	C271.918945,391.876373 257.288940,387.345520 243.190659,380.797882 
	C237.988007,378.381622 234.005325,375.070679 232.055603,369.431213 
	C230.754837,365.668762 228.926361,362.081696 227.233322,358.463287 
	C222.454865,348.250549 217.179688,338.344421 209.247177,330.104401 
	C209.404541,331.080017 209.798401,331.940399 210.364594,332.666382 
	C218.216522,342.734711 223.704391,354.110504 228.683426,365.764099 
	C229.878510,368.561218 231.691376,371.531982 226.158676,373.527740 
	C233.692474,377.255127 239.964676,380.695618 246.500107,383.528931 
	C266.518707,392.207581 287.128357,394.831879 308.363190,388.506348 
	C315.668793,386.330109 323.092560,384.266846 328.987457,378.973877 
M179.633347,242.653503 
	C186.042877,238.583115 193.419525,235.983414 199.758438,230.088577 
	C194.121780,228.376831 188.232162,230.384872 184.906616,225.221466 
	C174.762436,224.055862 165.737564,218.582230 155.597855,217.517151 
	C150.527847,216.984604 145.549210,217.785385 141.597855,221.434830 
	C139.989868,222.919937 138.712540,224.966278 139.807190,227.241287 
	C141.059372,229.843704 143.366791,228.518204 145.078888,227.909378 
	C149.811478,226.226486 154.602203,225.438232 159.643677,225.963623 
	C163.092224,232.303268 156.043930,234.115662 153.445709,239.324005 
	C159.993393,235.453140 165.672592,232.985596 171.818619,232.511368 
	C172.864990,234.804474 170.760162,235.254318 170.627762,236.554962 
	C171.471024,237.550720 173.340332,237.162933 173.722229,239.099762 
	C173.464096,239.466064 173.212433,240.236847 172.709778,240.472702 
	C167.570175,242.883987 165.317657,246.905106 164.298203,252.499847 
	C163.573425,256.477448 160.612793,259.763092 155.670074,260.513306 
	C159.337448,264.803253 155.748230,270.508759 158.497971,274.807281 
	C165.743607,264.435455 169.703415,252.049011 179.001251,243.000427 
	C179.001251,243.000427 179.027847,242.976181 179.633347,242.653503 
M134.447525,216.050964 
	C134.756607,210.496628 139.221237,207.463776 142.797562,203.338898 
	C136.953476,203.896072 134.300064,208.343887 130.275803,210.689087 
	C132.184708,202.681564 139.605148,200.908859 146.060104,197.792923 
	C143.678467,195.796921 141.608734,196.209259 139.665848,196.243362 
	C133.956100,196.343597 129.176804,199.293884 124.234077,201.609619 
	C121.418404,202.928802 119.097572,203.179749 116.533165,200.341064 
	C120.041107,198.115265 123.265045,196.069656 126.488991,194.024063 
	C118.801476,195.530884 112.035828,199.468338 104.205086,199.719498 
	C96.434639,199.968689 88.876640,199.578735 82.871330,193.643875 
	C88.257927,194.997971 93.413879,197.088211 99.123657,197.085403 
	C104.734512,197.082642 110.016655,196.115250 115.118965,193.574265 
	C93.052544,198.417755 78.157486,186.783661 65.060677,171.576996 
	C53.398247,182.464554 53.044643,194.125885 63.652264,203.641754 
	C64.655922,202.420319 65.773682,201.924561 66.553619,202.601898 
	C75.373009,210.261230 86.140869,212.123688 97.235672,212.702744 
	C100.207298,212.857849 104.089310,216.322662 106.267807,211.077545 
	C106.378166,210.811844 107.835670,210.967010 108.616455,211.144241 
	C111.044876,211.695450 113.464424,212.298828 115.860367,212.977478 
	C122.139778,214.756058 127.502373,218.408112 133.275589,222.175949 
	C133.677704,219.976730 133.968369,218.387070 134.447525,216.050964 
M259.872894,280.948761 
	C264.436737,283.312042 265.970245,288.157227 269.640015,291.190308 
	C266.596649,293.933899 263.760315,290.466797 261.090790,292.809753 
	C265.705170,297.508545 270.027466,302.221802 274.715179,306.538300 
	C276.747070,308.409302 279.494446,309.532776 281.986694,310.865082 
	C283.957886,311.918793 285.949677,311.970978 287.130768,309.699097 
	C288.164856,307.709991 287.895935,305.799194 285.899841,304.441803 
	C284.528259,303.509125 283.095245,302.667175 281.700470,301.767975 
	C279.442474,300.312347 277.127411,298.901550 275.928253,295.395203 
	C282.167969,296.542236 285.944946,303.199341 292.629333,300.707886 
	C294.399353,300.048157 296.962555,302.455200 298.516174,299.910553 
	C299.921204,297.609253 298.377930,295.411560 297.667816,293.254303 
	C296.927765,291.005920 294.781677,290.152344 293.045044,288.901276 
	C283.947327,282.347168 273.697845,277.376404 265.867218,269.068970 
	C264.928589,268.073181 263.838959,266.659760 262.064026,267.825470 
	C261.156738,270.001648 266.399261,271.733032 262.859192,273.567169 
	C260.398865,274.841858 259.052124,271.615326 257.446716,270.109497 
	C255.048981,267.860474 253.511063,264.720428 250.432144,263.224792 
	C248.741806,263.573822 250.786148,265.622009 248.181274,266.376404 
	C238.678329,254.440033 224.662704,244.905807 228.630142,226.338348 
	C226.665298,225.798630 225.656845,226.218323 224.839020,227.190720 
	C221.800034,230.803940 221.388214,238.499649 224.430923,242.188614 
	C226.705063,244.945801 228.142303,248.048965 229.685974,251.186890 
	C232.457977,256.821716 234.319946,263.000916 239.337250,267.340454 
	C244.119949,271.477081 248.777740,275.758850 253.462723,280.007385 
	C255.191849,281.575439 256.955200,282.601593 259.872894,280.948761 
M374.638702,151.477341 
	C374.092865,149.290573 372.964661,147.082840 374.760315,144.945633 
	C376.423492,144.821243 377.726746,145.908035 378.023926,146.918182 
	C379.928741,153.392456 385.257019,156.540085 390.280731,159.980438 
	C392.093018,161.221497 393.901031,163.577271 396.421326,161.676819 
	C398.694977,159.962357 398.629486,157.469284 397.849335,154.867737 
	C395.579895,147.299805 393.353271,139.717575 391.255157,132.100906 
	C390.781006,130.379608 389.427521,130.483566 388.314270,129.887589 
	C383.882629,127.515167 380.091888,124.656441 381.116608,118.740501 
	C381.357910,117.347588 381.228577,116.093285 379.804901,114.931915 
	C378.267578,115.312920 376.553558,115.737717 374.422394,116.265900 
	C374.917267,122.176651 371.037079,127.001228 370.615417,132.608429 
	C370.390808,135.595718 369.121063,137.216263 367.209656,139.274811 
	C363.452362,143.321289 359.000275,147.695724 360.305847,153.845016 
	C361.235535,158.223877 365.376404,161.114517 368.294678,164.403809 
	C370.515289,166.906662 373.668884,168.940720 377.185211,169.680588 
	C380.428589,170.363022 383.910187,170.251862 385.419281,166.819656 
	C386.912872,163.422791 385.061798,160.749420 381.933533,159.005630 
	C378.988770,157.364136 376.293213,155.457947 374.638702,151.477341 
M44.665459,197.670807 
	C43.444057,195.713333 43.992432,192.777374 40.921139,191.125641 
	C37.197079,204.458633 30.824299,216.412186 40.983231,230.396454 
	C49.240936,241.763580 59.636425,247.336960 72.256477,250.600372 
	C74.292938,251.126984 76.582626,250.674301 78.755264,250.674301 
	C70.283936,248.960526 62.027367,247.194809 55.357018,241.315079 
	C47.277855,234.193512 43.982464,225.544891 46.940758,218.669449 
	C53.961365,228.909515 59.681606,241.079132 75.602974,237.829102 
	C75.488876,235.551178 72.789673,236.095444 72.789047,233.570465 
	C84.371338,231.612320 95.958069,229.094482 107.962334,231.719284 
	C100.963219,228.201675 93.377243,227.417801 85.858528,226.332916 
	C67.647873,223.705261 53.087341,215.719269 44.665459,197.670807 
M322.882263,122.367882 
	C327.776306,116.999886 332.040833,111.010231 338.061462,106.658455 
	C334.772430,114.178619 328.139771,119.626549 326.135162,127.803185 
	C327.763275,126.595390 329.142975,125.202591 330.311066,123.650520 
	C333.505768,119.405670 336.178711,114.764122 340.020630,111.013107 
	C341.466583,109.601379 342.850342,107.845787 344.098297,110.883400 
	C347.660370,108.758858 348.213074,103.859406 352.961975,102.881256 
	C352.265472,107.995262 347.684174,111.163689 347.684967,117.321014 
	C356.213776,108.789101 360.575165,98.326530 368.630646,91.273315 
	C370.483429,91.680969 370.816071,94.173035 372.788544,93.119942 
	C373.782257,92.589417 374.302155,91.747124 373.899872,90.653343 
	C373.279663,88.966843 372.892700,86.937508 370.684753,86.622940 
	C369.578064,86.465263 368.357697,86.663246 367.259247,86.960732 
	C359.576569,89.041374 352.172760,92.199615 344.999298,95.344749 
	C333.835144,100.239609 323.925140,107.711548 314.270966,115.299629 
	C303.721405,123.591507 297.079926,134.569229 292.229279,146.811356 
	C291.472260,148.721939 290.245972,150.588226 290.778320,152.956329 
	C293.291565,152.502762 293.251801,149.669632 295.516113,148.844589 
	C297.916534,151.702148 299.375427,149.968506 300.847473,147.474396 
	C303.890350,142.318710 306.920563,137.144028 310.244904,132.170303 
	C312.298401,129.097931 313.783386,125.430222 317.204987,123.561501 
	C319.186005,124.776848 316.847290,126.470383 318.116547,127.754379 
	C319.581055,126.091560 320.995911,124.485085 322.882263,122.367882 
M278.152710,253.301743 
	C279.452118,255.045624 281.220276,256.636932 280.514038,259.063324 
	C279.101624,259.437225 278.608948,258.683838 277.912476,258.264252 
	C270.502441,253.800049 267.634216,245.504562 262.116974,239.413040 
	C258.600037,235.530045 254.337067,233.274918 250.063705,230.835068 
	C247.756790,229.517944 246.102280,230.999481 244.695969,233.695938 
	C254.395859,238.749268 259.985931,247.315567 265.347748,256.161224 
	C267.429962,259.596405 270.865021,261.860168 274.061890,264.274414 
	C276.007690,265.743835 277.656891,266.408630 279.059143,263.592865 
	C282.750946,270.208557 282.829315,270.217499 291.015991,264.957794 
	C287.580353,260.638458 285.159149,255.262589 281.694427,251.458160 
	C276.037720,245.246780 272.877716,237.886703 268.742310,230.968246 
	C266.967773,227.999496 260.910522,225.175781 257.742371,226.233215 
	C258.531677,229.855759 261.097321,232.280396 263.606110,234.661438 
	C267.021515,237.903030 270.236267,241.409988 271.935364,245.739563 
	C273.166473,248.876617 275.112488,250.944733 278.152710,253.301743 
M281.189941,146.562378 
	C279.897888,147.955612 279.181488,151.386078 277.345856,150.458023 
	C273.742432,148.636200 273.086975,151.593811 272.083984,153.088013 
	C269.508942,156.923981 267.435974,161.096939 264.785126,165.805038 
	C269.488220,165.155457 267.938568,167.604416 267.443756,169.441330 
	C265.549377,176.473969 265.559845,183.596680 266.467133,190.741180 
	C266.678894,192.408920 266.294830,195.046936 268.803101,195.034225 
	C272.097870,195.017517 270.758698,192.053467 270.752838,190.404053 
	C270.729645,183.876297 271.476501,177.446823 272.882568,171.106522 
	C273.273407,169.344193 273.134338,167.025452 276.259735,165.763168 
	C275.727112,172.369141 274.221985,178.577805 275.549622,185.568283 
	C276.865326,181.336761 276.316986,177.780106 276.803253,174.333237 
	C277.335236,170.561783 277.489563,165.931366 280.686768,163.957016 
	C283.211121,162.398163 283.971130,160.605621 284.876434,158.381500 
	C288.578949,149.285095 291.911652,140.024445 296.756226,131.432755 
	C297.903839,129.397491 299.122620,127.402367 300.308655,125.388786 
	C292.054047,130.656647 286.896149,138.388962 281.189941,146.562378 
M293.124329,234.250427 
	C295.427795,239.068588 298.833984,242.962112 303.284790,246.772675 
	C305.158386,242.859512 305.113007,239.063568 305.551758,235.420181 
	C305.646362,234.634796 305.244720,232.894165 303.516388,233.475098 
	C299.536469,234.812820 298.747620,230.969650 299.071075,229.425079 
	C299.930298,225.321716 297.431732,222.869705 295.857666,219.897888 
	C294.504944,217.343903 292.359100,215.304230 293.013336,211.754181 
	C293.351013,209.921921 291.618225,207.409943 288.904327,207.902496 
	C286.587860,208.322891 286.017456,210.216019 286.355408,212.545334 
	C287.421387,219.892120 291.194824,226.399841 293.124329,234.250427 
M219.457977,281.861328 
	C222.633850,283.414948 224.731720,286.710876 228.534393,287.876587 
	C228.538803,285.546539 228.461136,283.390747 226.317123,283.027954 
	C220.436951,282.032745 221.111725,276.467377 218.094696,273.360443 
	C220.168167,272.288818 221.023438,274.766785 223.158279,272.832458 
	C215.557495,263.520081 211.178162,252.847214 213.395432,239.989670 
	C210.883835,241.378967 209.683563,242.970352 208.531937,244.577621 
	C205.479385,248.837906 204.716324,254.622070 207.526260,257.459778 
	C211.168732,261.138214 211.239426,267.179718 216.436295,269.174469 
	C215.714676,271.549896 213.151276,270.410828 212.802505,272.700775 
	C214.472885,275.632202 213.425232,280.648895 219.457977,281.861328 
M154.615646,204.147873 
	C142.735245,204.656479 135.075439,211.759827 138.785629,219.455185 
	C151.170410,208.041916 165.948990,210.239563 180.841263,212.239548 
	C172.729950,207.981903 164.745575,204.085007 154.615646,204.147873 
M259.759460,70.286911 
	C251.800354,74.359268 243.631714,78.110458 237.458344,85.119835 
	C253.123550,81.082054 265.237762,68.969017 281.389648,66.087303 
	C273.869049,64.886902 267.076294,67.001183 259.759460,70.286911 
M397.374695,119.700577 
	C399.920135,119.096947 402.301636,118.144958 405.031769,116.311661 
	C399.781860,113.187279 397.782501,107.786110 393.807404,104.018463 
	C392.549957,102.826675 391.855133,101.474129 389.796661,102.083267 
	C387.672211,102.711906 386.948090,104.226700 386.812836,106.179100 
	C386.476288,111.036133 391.688690,118.222694 397.374695,119.700577 
M431.810577,178.234695 
	C430.035217,175.830246 431.499756,172.434540 429.539703,169.485443 
	C427.623993,175.743851 440.042755,195.486145 447.738800,199.140030 
	C450.257385,196.715576 451.736633,193.791077 450.565582,190.285660 
	C450.031250,188.686279 448.664215,187.186096 446.937347,186.704575 
	C445.084839,186.836914 445.678223,189.173431 443.599915,189.423355 
	C439.218323,186.901428 436.330627,182.212906 431.810577,178.234695 
M428.131409,160.297485 
	C427.900604,159.675995 427.712952,159.034256 427.432129,158.436249 
	C425.310669,153.918823 424.697144,148.535126 419.973755,145.507553 
	C418.852448,144.788818 417.792267,143.787628 416.402618,144.786606 
	C415.263641,145.605362 415.627136,146.819443 415.746094,147.980896 
	C416.556580,155.893417 421.390686,160.953751 427.460815,165.186295 
	C429.393433,163.880630 428.663116,162.389450 428.131409,160.297485 
M297.308960,314.311310 
	C299.517792,315.575836 298.215607,316.967957 297.202393,318.515778 
	C300.220337,319.388031 302.744720,320.875366 305.545044,323.217010 
	C305.522583,320.034241 306.958588,318.378754 310.370728,317.668884 
	C305.575836,313.423004 303.269318,307.580444 296.331360,307.360321 
	C298.226410,309.607941 294.306091,311.960510 297.308960,314.311310 
M262.451385,79.932220 
	C260.794952,81.096100 258.408051,81.424271 257.355072,84.815178 
	C268.296295,81.815132 278.190704,78.468864 287.638458,72.104164 
	C278.124634,71.782227 270.745819,76.127342 262.451385,79.932220 
M303.080200,329.560150 
	C298.547211,330.731659 294.656067,333.687225 289.834717,334.183624 
	C288.691864,334.301300 287.683044,335.790100 287.501190,337.184937 
	C287.202240,339.477997 288.535553,341.453766 290.481659,339.903625 
	C293.675262,337.359833 297.153381,337.743774 300.652222,337.176025 
	C305.117950,336.451416 305.963013,334.069183 303.080200,329.560150 
M213.428589,105.761803 
	C205.586685,105.334763 202.568222,111.617470 197.431702,116.439903 
	C206.334000,116.727539 212.825577,112.381485 213.428589,105.761803 
M359.678436,126.759834 
	C363.161407,121.979103 365.780273,116.810478 367.625732,111.502106 
	C365.998901,110.371635 365.096161,110.387970 364.505157,111.026886 
	C360.456329,115.404007 358.546356,120.954468 356.733246,126.422318 
	C356.093781,128.350708 357.962494,128.205490 359.678436,126.759834 
M165.238541,185.573868 
	C168.255753,185.701202 171.297974,186.533279 174.646439,185.578201 
	C164.908783,177.281143 163.207672,176.448349 158.785278,181.971573 
	C159.960770,184.257065 162.356903,184.597900 165.238541,185.573868 
M434.149048,160.569885 
	C432.606293,164.549179 434.465149,170.259338 437.867310,172.096848 
	C438.804932,172.603256 439.715485,172.799255 440.661285,172.228073 
	C441.640869,171.636520 442.095734,170.518890 441.631104,169.673355 
	C439.740021,166.231964 439.131805,161.797623 434.149048,160.569885 
M296.344482,191.682083 
	C295.066803,197.504059 299.261749,200.321213 302.942719,203.720276 
	C303.169800,201.959305 303.521271,200.408676 303.540680,198.853897 
	C303.590515,194.851913 299.886230,190.828995 296.344482,191.682083 
M72.849693,280.035339 
	C68.742821,278.853912 65.371651,276.097412 61.184967,274.219360 
	C64.365150,281.800598 75.440552,285.893677 80.506454,281.599091 
	C78.145958,281.127563 75.880356,280.674957 72.849693,280.035339 
M148.609344,172.373581 
	C150.266449,173.756485 152.268890,173.735092 154.245697,173.687515 
	C155.693542,173.652710 157.552551,173.863251 157.965958,172.052856 
	C158.416199,170.081116 156.665604,169.218567 155.211166,168.451050 
	C153.415192,167.503326 151.470749,167.103302 149.470612,167.614517 
	C146.818909,168.292297 146.344238,169.742035 148.609344,172.373581 
M424.845917,140.572525 
	C423.030579,138.358765 422.639465,135.051529 419.747131,133.529449 
	C417.170135,138.210800 420.983948,144.530777 427.378967,146.536972 
	C427.739349,144.299149 426.148529,142.865341 424.845917,140.572525 
M190.227310,116.388374 
	C190.316406,116.688004 190.376297,117.002228 190.513885,117.277626 
	C190.551147,117.352203 190.891357,117.386200 190.977997,117.309494 
	C196.095398,112.778183 201.200775,108.233299 206.307312,103.689713 
	C198.602356,104.878250 194.458038,110.330940 190.227310,116.388374 
M413.909790,168.817780 
	C411.183807,164.253616 408.300934,159.851761 402.124634,157.022614 
	C404.423767,162.942719 407.624939,166.585083 411.477753,169.697189 
	C412.220825,170.297379 413.478210,171.440277 413.909790,168.817780 
M99.982491,283.020874 
	C100.582024,282.035919 100.711990,280.846222 99.314697,280.887512 
	C96.387947,280.973969 93.448685,281.323364 90.562386,281.834747 
	C88.839088,282.140045 88.211243,283.420410 89.142532,285.628906 
	C92.537109,284.893188 96.129601,285.007721 99.982491,283.020874 
M298.968781,206.233994 
	C298.248505,205.870850 297.382446,206.093521 297.515198,206.809738 
	C298.349304,211.310852 301.090942,214.627853 304.235840,217.670929 
	C304.553314,213.038269 301.798096,209.907486 298.968781,206.233994 
M375.430206,98.465836 
	C374.150085,98.703041 372.787109,99.346443 371.604523,99.105331 
	C367.099121,98.186745 366.582214,101.089340 365.665497,105.158302 
	C369.889404,103.253967 373.563202,102.244827 375.430206,98.465836 
M171.395767,171.306015 
	C173.687775,171.623138 175.984039,172.049393 178.777313,171.482666 
	C175.188309,167.287720 171.373505,167.677750 167.132874,168.707184 
	C167.705658,170.882324 169.304306,170.838257 171.395767,171.306015 
M184.437347,161.129318 
	C182.857239,160.232422 181.371780,158.800446 178.632111,160.127243 
	C182.855225,163.342819 186.920410,165.219070 191.602737,165.880737 
	C189.415558,164.417892 187.228363,162.955063 184.437347,161.129318 
M159.527573,141.280396 
	C159.372620,141.335342 159.166946,141.348511 159.077408,141.457291 
	C158.992615,141.560303 158.960175,141.864944 159.023178,141.908127 
	C161.052780,143.299484 163.062256,144.725464 165.151764,146.022171 
	C166.377121,146.782623 167.380722,146.154541 168.041687,145.057587 
	C168.710541,143.947495 167.977905,143.212799 167.166229,142.581192 
	C165.036285,140.923813 162.538712,141.139038 159.527573,141.280396 
M265.204987,328.198547 
	C261.484619,329.140167 257.237030,328.780884 253.604172,332.685303 
	C259.351471,333.163300 262.946533,330.647247 266.596375,328.287354 
	C266.468658,328.220245 266.346954,328.118744 266.211639,328.095093 
	C266.054871,328.067688 265.886108,328.108704 265.204987,328.198547 
M304.428497,190.815994 
	C305.396149,191.334244 307.004303,192.400208 307.048004,190.596680 
	C307.108276,188.108841 306.386810,185.438400 303.185211,184.470306 
	C301.347076,186.891907 302.694061,188.606552 304.428497,190.815994 
M401.617706,145.123795 
	C401.586578,148.863205 403.910004,150.538788 407.609314,151.982788 
	C406.453766,148.410263 406.032562,145.200165 401.617706,145.123795 
M302.323547,254.857117 
	C303.814362,256.994171 305.557953,258.824280 308.224701,260.068634 
	C308.397034,257.351501 307.200134,255.579926 305.904327,253.941803 
	C304.567535,252.251892 303.090088,251.564163 302.323547,254.857117 
M408.034851,186.664917 
	C409.477783,187.536789 410.628601,189.366882 412.971252,188.041183 
	C412.307434,183.506912 409.665009,183.028427 404.712830,184.618820 
	C406.122589,185.450455 406.832520,185.869263 408.034851,186.664917 
M171.525314,124.678650 
	C172.886993,124.431000 174.536926,125.287727 175.751511,123.434494 
	C172.660736,121.803703 169.749634,121.981560 166.576630,123.252769 
	C167.824066,124.920723 169.423370,124.440994 171.525314,124.678650 
M254.989487,200.859009 
	C254.928101,199.602493 254.866730,198.345978 254.805344,197.089462 
	C253.365952,200.446960 252.740936,203.801117 253.967758,207.750046 
	C255.467651,205.509766 254.875198,203.518936 254.989487,200.859009 
z"/>
<path fill="#000000" opacity="1.000000" stroke="none" 
	d="
M113.794655,431.138977 
	C115.570282,431.845306 117.528648,431.281372 118.655289,433.448639 
	C116.280899,434.782440 113.988297,434.331787 111.817085,433.941406 
	C88.928864,429.825958 85.843094,407.832611 92.614609,393.501038 
	C95.730522,386.906372 101.889526,384.599792 108.522911,383.728882 
	C136.101807,380.107971 161.896912,385.009430 185.419830,400.321014 
	C186.650574,401.122162 187.925537,401.855408 189.876709,402.327576 
	C179.568207,385.814911 171.429962,368.781189 174.075302,347.873444 
	C177.847015,351.721252 177.800186,356.562408 180.547592,360.844299 
	C180.725220,358.516052 180.853180,356.838715 180.981155,355.161377 
	C181.449814,354.942627 181.918488,354.723877 182.387146,354.505127 
	C187.977600,365.606598 193.054871,377.004059 200.523758,386.985291 
	C208.119904,397.136597 218.345200,404.740265 226.860184,413.933289 
	C225.101883,416.572906 223.294327,414.647766 220.637299,414.784180 
	C226.682434,418.742676 232.424911,421.289276 238.503296,423.164337 
	C266.960236,431.942627 293.453735,426.654938 318.551117,411.845428 
	C332.601013,403.554901 346.327057,394.778015 361.841095,389.169647 
	C380.308960,382.493408 399.315430,381.382294 418.498077,383.113342 
	C434.025208,384.514465 440.419281,393.563385 439.238861,410.242767 
	C438.268219,423.957672 427.154480,434.298340 413.747955,433.948120 
	C412.756165,433.922241 411.738007,433.881012 410.770203,432.315674 
	C413.020966,431.780457 415.132355,431.365021 417.193329,430.773621 
	C427.053223,427.944275 433.950745,422.160065 436.133423,411.682892 
	C437.394440,405.629913 435.314850,400.412415 430.265533,396.922882 
	C426.595764,394.386780 422.423187,393.185150 418.126160,392.627563 
	C389.501892,388.913513 362.828217,394.507690 338.219086,409.679962 
	C337.659729,410.024780 337.179596,410.498047 336.483490,411.054504 
	C340.221375,413.691467 337.442169,415.423798 335.614990,417.105469 
	C325.027313,426.850250 312.761383,433.785034 299.095154,438.123779 
	C263.251068,449.503540 230.364609,442.590576 200.094635,421.338104 
	C188.128418,412.936615 177.262451,402.927368 163.146545,397.878296 
	C144.811661,391.320160 125.995338,390.103943 107.044464,393.572937 
	C92.678650,396.202637 88.337021,408.166382 96.548607,420.335114 
	C100.604507,426.345520 106.523643,429.471283 113.794655,431.138977 
z"/>
<path fill="#000000" opacity="1.000000" stroke="none" 
	d="
M62.554268,336.649750 
	C54.248978,341.469482 46.434837,346.587891 36.462135,346.260437 
	C41.958385,342.623627 48.629150,341.078735 53.820904,336.868347 
	C53.620243,333.302216 51.296825,333.868896 49.189404,334.333893 
	C43.777458,335.528046 38.315727,335.775421 32.814396,335.352020 
	C31.068907,335.217651 29.106421,335.498444 27.576178,332.851074 
	C47.152103,333.361023 61.208836,320.955566 77.306778,313.310089 
	C63.797298,315.213257 51.646503,322.918427 37.726990,322.170807 
	C36.521675,320.396118 39.082577,320.555145 38.800083,319.208618 
	C31.841923,319.208618 24.863106,319.220093 17.884344,319.205292 
	C11.153182,319.190979 6.873007,316.000275 4.090554,308.396484 
	C24.140537,305.980103 44.330769,310.130280 64.878944,305.853180 
	C61.009140,303.211151 56.302052,304.054504 53.388966,300.673004 
	C56.043694,299.076721 58.263161,300.536285 60.436634,300.790985 
	C70.392670,301.957672 80.376564,302.031525 90.363365,301.790497 
	C109.706963,301.323578 127.035080,307.286163 142.878937,318.021393 
	C145.744141,319.962708 148.288269,322.339783 150.072525,326.044586 
	C144.901077,327.825867 141.285965,322.979675 135.893997,323.685516 
	C143.620987,326.939117 151.363159,328.804260 156.244263,335.567627 
	C143.795013,332.568726 131.615097,328.783478 119.026260,328.581665 
	C117.085129,329.895172 119.059990,332.110016 117.386566,333.288177 
	C115.219658,333.145691 115.766457,330.478333 114.312447,329.828644 
	C110.718445,328.222748 108.409088,329.753479 106.604279,332.992706 
	C101.529808,342.100189 92.760483,344.262604 83.328438,345.006165 
	C82.377594,345.081116 81.285027,344.966400 80.676491,343.165680 
	C89.408897,341.024872 98.640915,339.358032 102.647354,329.155518 
	C96.361397,326.247772 90.565765,330.792664 84.219307,329.779114 
	C88.877190,323.601227 98.399429,326.291107 102.263664,318.874756 
	C98.482376,317.188629 95.208611,318.030487 92.086617,318.800629 
	C84.861176,320.583008 78.525879,324.156311 72.795715,328.906738 
	C69.597404,331.558167 66.174675,333.938904 62.554268,336.649750 
M52.015499,311.501953 
	C51.893738,314.073242 53.494251,313.543945 54.941395,313.060852 
	C58.021111,312.032745 61.075218,310.927948 64.139824,309.854584 
	C64.095749,309.672455 64.051682,309.490326 64.007607,309.308228 
	C60.149475,309.874420 56.291340,310.440613 52.015499,311.501953 
M132.014008,321.900177 
	C128.961899,321.076691 125.948334,319.895294 122.626831,321.429443 
	C125.798615,321.740356 128.970413,322.051270 132.014008,321.900177 
z"/>
<path fill="#000000" opacity="1.000000" stroke="none" 
	d="
M49.336151,374.648254 
	C56.347553,372.673370 61.400703,368.302063 66.472244,363.982025 
	C76.273308,355.633301 86.874695,349.579529 100.465034,351.644318 
	C106.016197,352.487732 110.758659,355.306152 115.748909,357.563782 
	C122.040176,360.410004 128.049484,363.995239 135.119598,365.711243 
	C135.741669,363.543457 136.157776,361.788788 136.748077,360.094818 
	C138.377029,355.420197 143.323059,352.391846 148.132324,353.045715 
	C153.085938,353.719238 156.806763,357.517822 157.541611,362.651733 
	C158.268463,367.729706 155.520172,372.405060 150.873138,374.212433 
	C147.082535,375.686646 143.372467,375.166168 139.621857,374.101715 
	C130.835678,371.608124 122.352058,368.031464 113.202377,366.835876 
	C98.633400,364.932068 85.289093,366.326416 73.868378,377.386902 
	C64.765099,386.202972 54.140720,386.488220 44.218925,379.934570 
	C42.881889,379.051453 41.179962,378.386047 41.303986,376.184448 
	C43.566036,374.357361 46.429379,375.408325 49.336151,374.648254 
M143.870163,367.396118 
	C146.493240,369.238708 148.581696,368.227814 150.150696,365.957764 
	C151.332169,364.248413 150.880875,362.499817 149.300919,361.146057 
	C147.805450,359.864746 146.131592,359.302795 144.391342,360.609131 
	C142.074524,362.348328 141.458298,364.458832 143.870163,367.396118 
z"/>
<path fill="#000000" opacity="1.000000" stroke="none" 
	d="
M406.089417,411.364410 
	C388.285553,412.317169 371.739410,416.096527 356.687378,425.139282 
	C350.959137,428.580597 344.788971,431.071136 338.674316,433.681702 
	C337.372803,434.237366 336.026825,435.233185 334.458801,434.190826 
	C334.102936,432.250854 335.732697,431.595642 336.813934,430.744812 
	C342.456116,426.304688 347.654510,421.360474 352.327301,415.961914 
	C359.827271,407.297180 369.340149,403.089874 380.460114,401.479156 
	C391.710663,399.849579 402.927429,398.852417 414.209534,400.793365 
	C418.697357,401.565430 422.657806,403.273193 423.205109,408.614532 
	C423.518402,411.672516 422.530884,413.583282 418.918182,412.524536 
	C414.877441,411.340302 410.727448,411.218292 406.089417,411.364410 
z"/>
<path fill="#000000" opacity="1.000000" stroke="none" 
	d="
M160.922256,404.815735 
	C171.183212,409.444336 177.151627,418.482025 184.874588,425.479279 
	C187.130951,427.523621 189.977295,429.182953 191.270050,432.126740 
	C190.074722,433.928192 188.738190,433.176910 187.617294,432.663330 
	C181.569229,429.892120 175.391953,427.343079 169.567856,424.153870 
	C150.270920,413.586945 129.892273,409.109985 108.025284,412.665253 
	C104.256149,413.278107 103.500725,411.502930 103.891693,408.528534 
	C104.352943,405.019440 106.663467,402.917114 109.898438,401.878387 
	C114.529144,400.391541 119.327385,399.957153 124.172523,399.804077 
	C136.578201,399.412201 148.750076,400.687378 160.922256,404.815735 
z"/>
<path fill="#000000" opacity="1.000000" stroke="none" 
	d="
M163.755493,303.963135 
	C165.297821,304.971191 166.491043,305.873810 167.970184,306.953369 
	C177.444931,315.594910 186.072876,324.562042 192.780869,335.181580 
	C195.175308,338.972290 197.330200,342.918060 199.497116,346.846710 
	C200.269760,348.247498 201.294006,349.744141 199.527206,352.278168 
	C192.986740,349.888092 185.541077,348.563812 181.224213,342.054230 
	C172.582230,329.022583 164.174377,315.837982 155.022339,303.149323 
	C154.475159,302.390686 154.277802,301.379669 153.774994,300.132111 
	C158.034332,299.480316 160.132294,303.228577 163.755493,303.963135 
z"/>
<path fill="#000000" opacity="1.000000" stroke="none" 
	d="
M257.464050,51.455795 
	C259.289948,50.881702 260.708588,49.596039 262.648132,51.102810 
	C260.239105,54.225307 255.886505,54.454411 252.481018,58.025639 
	C258.391937,58.716209 262.941681,55.139683 267.891388,56.887878 
	C251.994278,61.820290 237.329819,70.550446 220.554581,71.831688 
	C219.500458,69.852570 221.280258,69.708626 221.370041,68.516136 
	C215.710312,66.422646 209.209061,66.961395 203.721848,64.135010 
	C203.794586,63.697571 203.867325,63.260128 203.940048,62.822689 
	C208.609497,63.210735 213.308517,63.386463 217.942078,64.032074 
	C226.939041,65.285652 234.992203,62.474670 242.856705,58.698128 
	C247.644653,56.398945 252.370255,53.969952 257.464050,51.455795 
z"/>
<path fill="#000000" opacity="1.000000" stroke="none" 
	d="
M178.989258,243.013794 
	C174.308487,244.472015 172.835068,250.288437 167.823685,251.663513 
	C167.371979,246.582657 172.095398,241.988663 179.184372,240.129410 
	C179.901703,240.905182 179.231400,241.658432 179.084198,242.697922 
	C179.027847,242.976181 179.001251,243.000427 178.989258,243.013794 
z"/>
</svg>